<svg xmlns="http://www.w3.org/2000/svg" width="375" viewBox="0 0 375 375" height="375" version="1.0"><path fill="#00979C" d="M 277.21875 274.808594 C 253.65625 274.808594 233.414062 266.726562 215.777344 250.5625 C 204.824219 240.515625 195.800781 228.199219 187.488281 215.394531 C 179.1875 228.09375 170.152344 240.507812 159.199219 250.5625 C 140.144531 268.054688 118.3125 275.929688 92.339844 274.660156 C 43.128906 274.460938 3.058594 235.472656 3.058594 187.566406 C 3.058594 139.535156 43.347656 100.464844 92.972656 100.464844 C 96.179688 100.40625 99.378906 100.507812 102.578125 100.769531 C 105.773438 101.027344 108.949219 101.441406 112.101562 102.011719 C 115.257812 102.582031 118.378906 103.304688 121.460938 104.183594 C 124.546875 105.058594 127.582031 106.085938 130.566406 107.257812 C 133.550781 108.433594 136.46875 109.753906 139.324219 111.214844 C 142.179688 112.675781 144.957031 114.273438 147.65625 116.007812 C 150.351562 117.742188 152.960938 119.605469 155.476562 121.59375 C 157.992188 123.585938 160.40625 125.691406 162.714844 127.921875 C 172.238281 136.8125 180.285156 147.085938 187.617188 157.859375 C 194.945312 147.085938 202.992188 136.800781 212.515625 127.921875 C 214.824219 125.691406 217.238281 123.585938 219.753906 121.59375 C 222.269531 119.605469 224.878906 117.742188 227.574219 116.007812 C 230.273438 114.273438 233.050781 112.675781 235.90625 111.214844 C 238.761719 109.753906 241.679688 108.433594 244.664062 107.257812 C 247.648438 106.085938 250.683594 105.058594 253.769531 104.183594 C 256.851562 103.304688 259.972656 102.582031 263.128906 102.011719 C 266.28125 101.441406 269.457031 101.027344 272.652344 100.769531 C 275.851562 100.507812 279.050781 100.40625 282.257812 100.464844 C 331.777344 100.464844 372.171875 139.535156 372.171875 187.566406 C 372.171875 235.460938 332.101562 274.460938 282.773438 274.671875 C 281 274.757812 279.226562 274.800781 277.449219 274.796875 Z M 205.515625 186.414062 C 215.351562 202.378906 224.882812 217.242188 236.503906 227.910156 C 249.621094 239.953125 263.445312 244.90625 281.3125 244.074219 L 282.117188 244.050781 C 314.707031 244.050781 341.230469 218.648438 341.230469 187.707031 C 341.230469 156.761719 314.71875 131.359375 282.117188 131.359375 C 277.613281 131.257812 273.144531 131.601562 268.710938 132.390625 C 264.277344 133.179688 259.960938 134.398438 255.769531 136.050781 C 251.578125 137.699219 247.589844 139.746094 243.804688 142.195312 C 240.019531 144.640625 236.515625 147.4375 233.289062 150.585938 C 222.773438 160.375 214.09375 172.925781 205.527344 186.5625 Z M 92.972656 131.210938 C 60.386719 131.210938 33.859375 156.613281 33.859375 187.554688 C 33.859375 218.5 60.375 243.902344 92.972656 243.902344 L 93.78125 243.921875 C 111.648438 244.871094 125.480469 239.917969 138.589844 227.757812 C 150.207031 217.089844 159.753906 202.359375 169.574219 186.261719 C 161 172.636719 152.316406 160.074219 141.816406 150.285156 C 127.753906 137.179688 112.226562 131.0625 92.972656 131.0625 Z M 286.199219 176.402344 L 286.199219 159.730469 L 268.882812 159.730469 L 268.882812 176.402344 L 252.238281 176.402344 L 252.238281 193.675781 L 268.882812 193.675781 L 268.882812 210.472656 L 286.210938 210.472656 L 286.210938 193.675781 L 302.855469 193.675781 L 302.855469 176.402344 L 286.210938 176.402344 M 67.9375 176.089844 L 122.644531 176.089844 L 122.644531 193.894531 L 67.9375 193.894531 Z M 67.9375 176.089844"/></svg>