<svg xmlns="http://www.w3.org/2000/svg" width="375" viewBox="0 0 375 375" height="375" version="1.0"><path fill="#283593" d="M 177.804688 3.410156 C 183.804688 0.0429688 191.195312 0.0429688 197.183594 3.410156 C 226.832031 20.042969 316.054688 70.105469 345.710938 86.738281 C 351.710938 90.097656 355.40625 96.3125 355.40625 103.046875 C 355.40625 136.308594 355.40625 236.429688 355.40625 269.695312 C 355.40625 276.425781 351.710938 282.644531 345.710938 286.011719 C 316.0625 302.644531 226.84375 352.707031 197.183594 369.339844 C 191.183594 372.707031 183.796875 372.707031 177.804688 369.339844 C 148.15625 352.707031 58.9375 302.644531 29.28125 286.011719 C 23.289062 282.644531 19.59375 276.4375 19.59375 269.703125 C 19.59375 236.441406 19.59375 136.320312 19.59375 103.054688 C 19.59375 96.324219 23.289062 90.105469 29.289062 86.738281 C 58.929688 70.105469 148.167969 20.042969 177.804688 3.410156 Z M 177.804688 3.410156" fill-rule="evenodd"/><path fill="#5C6BC0" d="M 22.28125 278.273438 C 19.929688 275.128906 19.59375 272.144531 19.59375 268.125 C 19.59375 235.054688 19.59375 135.507812 19.59375 102.425781 C 19.59375 95.730469 23.28125 89.546875 29.261719 86.210938 C 58.804688 69.675781 147.722656 19.902344 177.265625 3.355469 C 183.25 0.0078125 191.351562 0.078125 197.335938 3.425781 C 226.878906 19.960938 315.496094 69.3125 345.039062 85.847656 C 347.425781 87.191406 349.246094 88.804688 350.871094 90.933594 Z M 22.28125 278.273438" fill-rule="evenodd"/><path fill="#FFF" d="M 187.5 62.714844 C 255.785156 62.714844 311.21875 118.121094 311.21875 186.375 C 311.21875 254.628906 255.785156 310.035156 187.5 310.035156 C 119.214844 310.035156 63.78125 254.628906 63.78125 186.375 C 63.78125 118.121094 119.214844 62.714844 187.5 62.714844 Z M 187.5 124.542969 C 221.636719 124.542969 249.359375 152.246094 249.359375 186.375 C 249.359375 220.496094 221.636719 248.207031 187.5 248.207031 C 153.363281 248.207031 125.640625 220.496094 125.640625 186.375 C 125.640625 152.246094 153.351562 124.542969 187.5 124.542969 Z M 187.5 124.542969" fill-rule="evenodd"/><path fill="#3949AB" d="M 350.855469 91.023438 C 355.414062 95.289062 355.324219 101.71875 355.324219 106.78125 C 355.324219 140.300781 355.042969 235.644531 355.40625 269.167969 C 355.441406 272.664062 354.28125 276.347656 352.550781 279.121094 L 183.902344 186.375 Z M 350.855469 91.023438" fill-rule="evenodd"/></svg>