<svg xmlns="http://www.w3.org/2000/svg" width="375" viewBox="0 0 375 375" height="375" version="1.0"><defs><clipPath id="a"><path d="M 23.753906 2 L 351.503906 2 L 351.503906 374 L 23.753906 374 Z M 23.753906 2"/></clipPath></defs><g clip-path="url(#a)"><path fill="#E44D26" d="M 53.503906 336.648438 L 23.660156 2.34375 L 351.59375 2.34375 L 321.726562 336.601562 L 187.417969 373.769531 Z M 53.503906 336.648438"/></g><path fill="#F16529" d="M 296.144531 315.316406 L 321.679688 29.679688 L 187.628906 29.679688 L 187.628906 345.367188 Z M 296.144531 315.316406"/><path fill="#EBEBEB" d="M 187.488281 70.675781 L 84.675781 70.675781 L 95.753906 194.667969 L 187.628906 194.667969 L 187.628906 153.671875 L 133.304688 153.671875 L 129.550781 111.6875 L 187.628906 111.6875 L 187.628906 70.675781 Z M 187.628906 260.015625 L 187.453125 260.0625 L 141.730469 247.738281 L 138.824219 215.039062 L 97.589844 215.039062 L 103.339844 279.414062 L 187.441406 302.628906 L 187.628906 302.570312 Z M 187.628906 260.015625"/><path fill="#FFF" d="M 187.488281 194.667969 L 238.042969 194.667969 L 233.394531 247.828125 L 187.605469 260.167969 L 187.605469 302.824219 L 271.773438 279.527344 L 283.046875 153.648438 L 187.628906 153.648438 Z M 289.34375 81.679688 L 290.320312 70.675781 L 187.464844 70.675781 L 187.464844 111.675781 L 286.625 111.675781 L 287.441406 102.457031 Z M 289.34375 81.679688"/></svg>