<svg xmlns="http://www.w3.org/2000/svg" width="375" viewBox="0 0 375 375" height="375" version="1.0"><defs><clipPath id="a"><path d="M 0 2.105469 L 372.75 2.105469 L 372.75 374.855469 L 0 374.855469 Z M 0 2.105469"/></clipPath></defs><g clip-path="url(#a)"><path fill="#0077B5" d="M 55.914062 2.105469 L 316.835938 2.105469 C 318.667969 2.105469 320.496094 2.195312 322.316406 2.375 C 324.140625 2.554688 325.949219 2.824219 327.746094 3.179688 C 329.542969 3.539062 331.316406 3.980469 333.066406 4.511719 C 334.820312 5.042969 336.542969 5.660156 338.234375 6.363281 C 339.925781 7.0625 341.578125 7.84375 343.195312 8.707031 C 344.808594 9.570312 346.378906 10.511719 347.902344 11.527344 C 349.421875 12.546875 350.890625 13.636719 352.308594 14.796875 C 353.722656 15.957031 355.078125 17.1875 356.375 18.480469 C 357.667969 19.777344 358.898438 21.132812 360.058594 22.546875 C 361.21875 23.964844 362.308594 25.433594 363.328125 26.953125 C 364.34375 28.476562 365.285156 30.046875 366.148438 31.660156 C 367.011719 33.277344 367.792969 34.929688 368.492188 36.621094 C 369.195312 38.3125 369.8125 40.035156 370.34375 41.789062 C 370.875 43.539062 371.320312 45.3125 371.675781 47.109375 C 372.03125 48.90625 372.300781 50.714844 372.480469 52.539062 C 372.660156 54.359375 372.75 56.1875 372.75 58.019531 L 372.75 318.941406 C 372.75 320.773438 372.660156 322.601562 372.480469 324.421875 C 372.300781 326.246094 372.03125 328.054688 371.675781 329.851562 C 371.316406 331.648438 370.875 333.421875 370.34375 335.171875 C 369.8125 336.925781 369.195312 338.648438 368.492188 340.339844 C 367.792969 342.03125 367.011719 343.683594 366.148438 345.300781 C 365.285156 346.914062 364.34375 348.484375 363.328125 350.007812 C 362.308594 351.527344 361.21875 353 360.058594 354.414062 C 358.898438 355.828125 357.667969 357.183594 356.375 358.480469 C 355.078125 359.773438 353.722656 361.003906 352.308594 362.164062 C 350.890625 363.324219 349.421875 364.414062 347.902344 365.433594 C 346.378906 366.449219 344.808594 367.390625 343.195312 368.253906 C 341.578125 369.117188 339.925781 369.898438 338.234375 370.597656 C 336.542969 371.300781 334.820312 371.917969 333.066406 372.449219 C 331.316406 372.980469 329.542969 373.425781 327.746094 373.78125 C 325.949219 374.136719 324.140625 374.40625 322.316406 374.585938 C 320.496094 374.765625 318.667969 374.855469 316.835938 374.855469 L 55.914062 374.855469 C 54.082031 374.855469 52.253906 374.765625 50.433594 374.585938 C 48.609375 374.40625 46.800781 374.136719 45.003906 373.78125 C 43.207031 373.425781 41.433594 372.980469 39.683594 372.449219 C 37.929688 371.917969 36.207031 371.300781 34.515625 370.597656 C 32.824219 369.898438 31.171875 369.117188 29.554688 368.253906 C 27.941406 367.390625 26.371094 366.449219 24.847656 365.433594 C 23.328125 364.414062 21.859375 363.324219 20.441406 362.164062 C 19.027344 361.003906 17.671875 359.773438 16.375 358.480469 C 15.082031 357.183594 13.851562 355.828125 12.691406 354.414062 C 11.53125 353 10.441406 351.527344 9.421875 350.007812 C 8.40625 348.484375 7.464844 346.914062 6.601562 345.300781 C 5.738281 343.683594 4.957031 342.03125 4.257812 340.339844 C 3.554688 338.648438 2.9375 336.925781 2.40625 335.171875 C 1.875 333.421875 1.429688 331.648438 1.074219 329.851562 C 0.71875 328.054688 0.449219 326.246094 0.269531 324.421875 C 0.0898438 322.601562 0 320.773438 0 318.941406 L 0 58.019531 C 0 56.1875 0.0898438 54.359375 0.269531 52.539062 C 0.449219 50.714844 0.71875 48.90625 1.074219 47.109375 C 1.429688 45.3125 1.875 43.539062 2.40625 41.789062 C 2.9375 40.035156 3.554688 38.3125 4.257812 36.621094 C 4.957031 34.929688 5.738281 33.277344 6.601562 31.660156 C 7.464844 30.046875 8.40625 28.476562 9.421875 26.953125 C 10.441406 25.433594 11.53125 23.964844 12.691406 22.546875 C 13.851562 21.132812 15.082031 19.777344 16.375 18.480469 C 17.671875 17.1875 19.027344 15.957031 20.441406 14.796875 C 21.859375 13.636719 23.328125 12.546875 24.847656 11.527344 C 26.371094 10.511719 27.941406 9.570312 29.554688 8.707031 C 31.171875 7.84375 32.824219 7.0625 34.515625 6.363281 C 36.207031 5.660156 37.929688 5.042969 39.683594 4.511719 C 41.433594 3.980469 43.207031 3.539062 45.003906 3.179688 C 46.800781 2.824219 48.609375 2.554688 50.433594 2.375 C 52.253906 2.195312 54.082031 2.105469 55.914062 2.105469 Z M 55.914062 2.105469"/></g><path fill="#FFF" d="M 130.316406 102.574219 C 130.316406 103.457031 130.273438 104.335938 130.1875 105.214844 C 130.101562 106.089844 129.972656 106.964844 129.800781 107.828125 C 129.628906 108.695312 129.414062 109.546875 129.15625 110.394531 C 128.902344 111.238281 128.605469 112.066406 128.265625 112.882812 C 127.929688 113.695312 127.550781 114.492188 127.136719 115.269531 C 126.71875 116.050781 126.265625 116.804688 125.777344 117.539062 C 125.285156 118.273438 124.761719 118.980469 124.203125 119.660156 C 123.644531 120.34375 123.050781 120.996094 122.425781 121.621094 C 121.804688 122.246094 121.152344 122.835938 120.46875 123.394531 C 119.785156 123.957031 119.078125 124.480469 118.34375 124.972656 C 117.613281 125.460938 116.855469 125.914062 116.078125 126.328125 C 115.300781 126.746094 114.503906 127.121094 113.6875 127.460938 C 112.875 127.796875 112.042969 128.09375 111.199219 128.351562 C 110.355469 128.605469 109.5 128.820312 108.636719 128.992188 C 107.769531 129.164062 106.898438 129.292969 106.019531 129.378906 C 105.140625 129.46875 104.261719 129.511719 103.378906 129.511719 C 102.496094 129.511719 101.617188 129.46875 100.738281 129.378906 C 99.863281 129.292969 98.988281 129.164062 98.125 128.992188 C 97.257812 128.820312 96.40625 128.605469 95.558594 128.351562 C 94.714844 128.09375 93.886719 127.796875 93.070312 127.460938 C 92.257812 127.121094 91.460938 126.746094 90.683594 126.328125 C 89.902344 125.914062 89.148438 125.460938 88.414062 124.972656 C 87.679688 124.480469 86.972656 123.957031 86.292969 123.394531 C 85.609375 122.835938 84.957031 122.246094 84.332031 121.621094 C 83.707031 120.996094 83.117188 120.34375 82.558594 119.660156 C 81.996094 118.980469 81.472656 118.273438 80.984375 117.539062 C 80.492188 116.804688 80.039062 116.050781 79.625 115.269531 C 79.207031 114.492188 78.832031 113.695312 78.492188 112.882812 C 78.15625 112.066406 77.859375 111.238281 77.601562 110.394531 C 77.347656 109.546875 77.132812 108.695312 76.960938 107.828125 C 76.789062 106.964844 76.660156 106.089844 76.574219 105.214844 C 76.484375 104.335938 76.441406 103.457031 76.441406 102.574219 C 76.441406 101.691406 76.484375 100.8125 76.574219 99.933594 C 76.660156 99.054688 76.789062 98.183594 76.960938 97.316406 C 77.132812 96.453125 77.347656 95.597656 77.601562 94.753906 C 77.859375 93.910156 78.15625 93.082031 78.492188 92.265625 C 78.832031 91.449219 79.207031 90.652344 79.625 89.875 C 80.039062 89.097656 80.492188 88.339844 80.984375 87.609375 C 81.472656 86.875 81.996094 86.167969 82.558594 85.484375 C 83.117188 84.804688 83.707031 84.148438 84.332031 83.527344 C 84.957031 82.902344 85.609375 82.308594 86.292969 81.75 C 86.972656 81.191406 87.679688 80.667969 88.414062 80.175781 C 89.148438 79.6875 89.902344 79.234375 90.683594 78.816406 C 91.460938 78.402344 92.257812 78.023438 93.070312 77.6875 C 93.886719 77.347656 94.714844 77.050781 95.558594 76.796875 C 96.40625 76.539062 97.257812 76.324219 98.125 76.152344 C 98.988281 75.980469 99.863281 75.851562 100.738281 75.765625 C 101.617188 75.679688 102.496094 75.636719 103.378906 75.636719 C 104.261719 75.636719 105.140625 75.679688 106.019531 75.765625 C 106.898438 75.851562 107.769531 75.980469 108.636719 76.152344 C 109.5 76.324219 110.355469 76.539062 111.199219 76.796875 C 112.042969 77.050781 112.875 77.347656 113.6875 77.6875 C 114.503906 78.023438 115.300781 78.402344 116.078125 78.816406 C 116.855469 79.234375 117.613281 79.6875 118.34375 80.175781 C 119.078125 80.667969 119.785156 81.191406 120.46875 81.75 C 121.152344 82.308594 121.804688 82.902344 122.425781 83.527344 C 123.050781 84.148438 123.644531 84.804688 124.203125 85.484375 C 124.761719 86.167969 125.285156 86.875 125.777344 87.609375 C 126.265625 88.339844 126.71875 89.097656 127.136719 89.875 C 127.550781 90.652344 127.929688 91.449219 128.265625 92.265625 C 128.605469 93.082031 128.902344 93.910156 129.15625 94.753906 C 129.414062 95.597656 129.628906 96.453125 129.800781 97.316406 C 129.972656 98.183594 130.101562 99.054688 130.1875 99.933594 C 130.273438 100.8125 130.316406 101.691406 130.316406 102.574219 Z M 130.316406 102.574219"/><path transform="matrix(.72803 0 0 .72803 0 2.106)" fill="#FFF" d="M 243.997324 194.001097 L 243.997324 391.999767 M 141.99866 194.001097 L 141.99866 391.999767" stroke="#FFF" stroke-width="66"/><path fill="#FFF" d="M 200.933594 207.410156 C 200.933594 192.847656 210.398438 178.289062 227.144531 178.289062 C 244.617188 178.289062 251.167969 191.394531 251.167969 211.050781 L 251.167969 287.492188 L 299.21875 287.492188 L 299.21875 205.226562 C 299.21875 160.816406 275.921875 140.429688 243.890625 140.429688 C 219.136719 140.429688 206.757812 154.261719 200.933594 163.726562"/></svg>
